<svg id="Capa_1" data-name="Capa 1" xmlns="http://www.w3.org/2000/svg" viewBox="0 0 155.45 164.71"><defs><style>.cls-1,.cls-10,.cls-11,.cls-12,.cls-13,.cls-14,.cls-15,.cls-16,.cls-17,.cls-18,.cls-19,.cls-2,.cls-20,.cls-21,.cls-22,.cls-23,.cls-24,.cls-25,.cls-26,.cls-27,.cls-28,.cls-29,.cls-3,.cls-30,.cls-31,.cls-32,.cls-33,.cls-34,.cls-35,.cls-4,.cls-5,.cls-6,.cls-7,.cls-8,.cls-9{fill:none;stroke-linecap:round;stroke-linejoin:round;}.cls-1,.cls-27{stroke:#ffe003;}.cls-1,.cls-18,.cls-9{stroke-width:2.61px;}.cls-2,.cls-28{stroke:#ffe313;}.cls-10,.cls-19,.cls-2{stroke-width:2.35px;}.cls-29,.cls-3{stroke:#ffe835;}.cls-11,.cls-20,.cls-3{stroke-width:2.09px;}.cls-30,.cls-4{stroke:#ffeb51;}.cls-12,.cls-21,.cls-4{stroke-width:1.83px;}.cls-31,.cls-5{stroke:#ffee6e;}.cls-13,.cls-22,.cls-5{stroke-width:1.57px;}.cls-32,.cls-6{stroke:#fff18d;}.cls-14,.cls-23,.cls-6{stroke-width:1.3px;}.cls-33,.cls-7{stroke:#fff5ac;}.cls-15,.cls-24,.cls-7{stroke-width:1.04px;}.cls-34,.cls-8{stroke:#fdf7c7;}.cls-16,.cls-25,.cls-8{stroke-width:0.52px;}.cls-9{stroke:#43c0ef;}.cls-10{stroke:#4bc1ed;}.cls-11{stroke:#5dc5ec;}.cls-12{stroke:#6ec9eb;}.cls-13{stroke:#7dcdeb;}.cls-14{stroke:#88cfe8;}.cls-15{stroke:#b1deef;}.cls-16{stroke:#c2e4ed;}.cls-17{stroke:#d8edf4;}.cls-17,.cls-26{stroke-width:0.26px;}.cls-18{stroke:#e82c88;}.cls-19{stroke:#e44592;}.cls-20{stroke:#de6da7;}.cls-21{stroke:#e77baf;}.cls-22{stroke:#ee96c0;}.cls-23{stroke:#f1a5c9;}.cls-24{stroke:#f7c3dc;}.cls-25{stroke:#f2cce3;}.cls-26{stroke:#f9deed;}.cls-27{stroke-width:2.2px;}.cls-28{stroke-width:1.98px;}.cls-29{stroke-width:1.76px;}.cls-30{stroke-width:1.54px;}.cls-31{stroke-width:1.32px;}.cls-32{stroke-width:1.1px;}.cls-33{stroke-width:0.88px;}.cls-34{stroke-width:0.44px;}.cls-35{stroke:#fff;stroke-width:1.19px;}</style></defs><path class="cls-1" d="M92.36,122.14l9.19-15.75a23.79,23.79,0,0,1,4.17-5.17" transform="translate(-64.32 -57.06)"/><path class="cls-2" d="M92.36,122.14l9.19-15.75a23.79,23.79,0,0,1,4.17-5.17" transform="translate(-64.32 -57.06)"/><path class="cls-3" d="M92.36,122.14l9.19-15.75a23.79,23.79,0,0,1,4.17-5.17" transform="translate(-64.32 -57.06)"/><path class="cls-4" d="M92.36,122.14l9.19-15.75a23.79,23.79,0,0,1,4.17-5.17" transform="translate(-64.32 -57.06)"/><path class="cls-5" d="M92.36,122.14l9.19-15.75a23.79,23.79,0,0,1,4.17-5.17" transform="translate(-64.32 -57.06)"/><path class="cls-6" d="M92.36,122.14l9.19-15.75a23.79,23.79,0,0,1,4.17-5.17" transform="translate(-64.32 -57.06)"/><path class="cls-7" d="M92.36,122.14l9.19-15.75a23.79,23.79,0,0,1,4.17-5.17" transform="translate(-64.32 -57.06)"/><path class="cls-8" d="M92.36,122.14l9.19-15.75a23.79,23.79,0,0,1,4.17-5.17" transform="translate(-64.32 -57.06)"/><path class="cls-1" d="M70.65,189.67c-5.71-6.87-6.71-18.82-2.2-26.55L85.21,134.4" transform="translate(-64.32 -57.06)"/><path class="cls-2" d="M70.65,189.67c-5.71-6.87-6.71-18.82-2.2-26.55L85.21,134.4" transform="translate(-64.32 -57.06)"/><path class="cls-3" d="M70.65,189.67c-5.71-6.87-6.71-18.82-2.2-26.55L85.21,134.4" transform="translate(-64.32 -57.06)"/><path class="cls-4" d="M70.65,189.67c-5.71-6.87-6.71-18.82-2.2-26.55L85.21,134.4" transform="translate(-64.32 -57.06)"/><path class="cls-5" d="M70.65,189.67c-5.71-6.87-6.71-18.82-2.2-26.55L85.21,134.4" transform="translate(-64.32 -57.06)"/><path class="cls-6" d="M70.65,189.67c-5.71-6.87-6.71-18.82-2.2-26.55L85.21,134.4" transform="translate(-64.32 -57.06)"/><path class="cls-7" d="M70.65,189.67c-5.71-6.87-6.71-18.82-2.2-26.55L85.21,134.4" transform="translate(-64.32 -57.06)"/><path class="cls-8" d="M70.65,189.67c-5.71-6.87-6.71-18.82-2.2-26.55L85.21,134.4" transform="translate(-64.32 -57.06)"/><path class="cls-1" d="M197.63,132.26l18,30.86c4.51,7.73,3.52,19.68-2.2,26.55" transform="translate(-64.32 -57.06)"/><path class="cls-2" d="M197.63,132.26l18,30.86c4.51,7.73,3.52,19.68-2.2,26.55" transform="translate(-64.32 -57.06)"/><path class="cls-3" d="M197.63,132.26l18,30.86c4.51,7.73,3.52,19.68-2.2,26.55" transform="translate(-64.32 -57.06)"/><path class="cls-4" d="M197.63,132.26l18,30.86c4.51,7.73,3.52,19.68-2.2,26.55" transform="translate(-64.32 -57.06)"/><path class="cls-5" d="M197.63,132.26l18,30.86c4.51,7.73,3.52,19.68-2.2,26.55" transform="translate(-64.32 -57.06)"/><path class="cls-6" d="M197.63,132.26l18,30.86c4.51,7.73,3.52,19.68-2.2,26.55" transform="translate(-64.32 -57.06)"/><path class="cls-7" d="M197.63,132.26l18,30.86c4.51,7.73,3.52,19.68-2.2,26.55" transform="translate(-64.32 -57.06)"/><path class="cls-8" d="M197.63,132.26l18,30.86c4.51,7.73,3.52,19.68-2.2,26.55" transform="translate(-64.32 -57.06)"/><path class="cls-1" d="M176.8,99.82a25.34,25.34,0,0,1,5.74,6.57l9.19,15.75" transform="translate(-64.32 -57.06)"/><path class="cls-2" d="M176.8,99.82a25.34,25.34,0,0,1,5.74,6.57l9.19,15.75" transform="translate(-64.32 -57.06)"/><path class="cls-3" d="M176.8,99.82a25.34,25.34,0,0,1,5.74,6.57l9.19,15.75" transform="translate(-64.32 -57.06)"/><path class="cls-4" d="M176.8,99.82a25.34,25.34,0,0,1,5.74,6.57l9.19,15.75" transform="translate(-64.32 -57.06)"/><path class="cls-5" d="M176.8,99.82a25.34,25.34,0,0,1,5.74,6.57l9.19,15.75" transform="translate(-64.32 -57.06)"/><path class="cls-6" d="M176.8,99.82a25.34,25.34,0,0,1,5.74,6.57l9.19,15.75" transform="translate(-64.32 -57.06)"/><path class="cls-7" d="M176.8,99.82a25.34,25.34,0,0,1,5.74,6.57l9.19,15.75" transform="translate(-64.32 -57.06)"/><path class="cls-8" d="M176.8,99.82a25.34,25.34,0,0,1,5.74,6.57l9.19,15.75" transform="translate(-64.32 -57.06)"/><path class="cls-1" d="M161.2,92.58a28.39,28.39,0,0,1,5.08,1.27" transform="translate(-64.32 -57.06)"/><path class="cls-2" d="M161.2,92.58a28.39,28.39,0,0,1,5.08,1.27" transform="translate(-64.32 -57.06)"/><path class="cls-3" d="M161.2,92.58a28.39,28.39,0,0,1,5.08,1.27" transform="translate(-64.32 -57.06)"/><path class="cls-4" d="M161.2,92.58a28.39,28.39,0,0,1,5.08,1.27" transform="translate(-64.32 -57.06)"/><path class="cls-5" d="M161.2,92.58a28.39,28.39,0,0,1,5.08,1.27" transform="translate(-64.32 -57.06)"/><path class="cls-6" d="M161.2,92.58a28.39,28.39,0,0,1,5.08,1.27" transform="translate(-64.32 -57.06)"/><path class="cls-7" d="M161.2,92.58a28.39,28.39,0,0,1,5.08,1.27" transform="translate(-64.32 -57.06)"/><path class="cls-8" d="M161.2,92.58a28.39,28.39,0,0,1,5.08,1.27" transform="translate(-64.32 -57.06)"/><path class="cls-1" d="M115.52,94.75a30,30,0,0,1,6.64-2" transform="translate(-64.32 -57.06)"/><path class="cls-2" d="M115.52,94.75a30,30,0,0,1,6.64-2" transform="translate(-64.32 -57.06)"/><path class="cls-3" d="M115.52,94.75a30,30,0,0,1,6.64-2" transform="translate(-64.32 -57.06)"/><path class="cls-4" d="M115.52,94.75a30,30,0,0,1,6.64-2" transform="translate(-64.32 -57.06)"/><path class="cls-5" d="M115.52,94.75a30,30,0,0,1,6.64-2" transform="translate(-64.32 -57.06)"/><path class="cls-6" d="M115.52,94.75a30,30,0,0,1,6.64-2" transform="translate(-64.32 -57.06)"/><path class="cls-7" d="M115.52,94.75a30,30,0,0,1,6.64-2" transform="translate(-64.32 -57.06)"/><path class="cls-8" d="M115.52,94.75a30,30,0,0,1,6.64-2" transform="translate(-64.32 -57.06)"/><path class="cls-9" d="M127.74,94.36c0,19.88,14.54,36,14.54,36s14.55-16.12,14.55-36a51.05,51.05,0,0,0-5.48-22H133.22A51.05,51.05,0,0,0,127.74,94.36Z" transform="translate(-64.32 -57.06)"/><path class="cls-10" d="M127.74,94.36c0,19.88,14.54,36,14.54,36s14.55-16.12,14.55-36a51.05,51.05,0,0,0-5.48-22H133.22A51.05,51.05,0,0,0,127.74,94.36Z" transform="translate(-64.32 -57.06)"/><path class="cls-11" d="M127.74,94.36c0,19.88,14.54,36,14.54,36s14.55-16.12,14.55-36a51.05,51.05,0,0,0-5.48-22H133.22A51.05,51.05,0,0,0,127.74,94.36Z" transform="translate(-64.32 -57.06)"/><path class="cls-12" d="M127.74,94.36c0,19.88,14.54,36,14.54,36s14.55-16.12,14.55-36a51.05,51.05,0,0,0-5.48-22H133.22A51.05,51.05,0,0,0,127.74,94.36Z" transform="translate(-64.32 -57.06)"/><path class="cls-13" d="M127.74,94.36c0,19.88,14.54,36,14.54,36s14.55-16.12,14.55-36a51.05,51.05,0,0,0-5.48-22H133.22A51.05,51.05,0,0,0,127.74,94.36Z" transform="translate(-64.32 -57.06)"/><path class="cls-14" d="M127.74,94.36c0,19.88,14.54,36,14.54,36s14.55-16.12,14.55-36a51.05,51.05,0,0,0-5.48-22H133.22A51.05,51.05,0,0,0,127.74,94.36Z" transform="translate(-64.32 -57.06)"/><path class="cls-15" d="M127.74,94.36c0,19.88,14.54,36,14.54,36s14.55-16.12,14.55-36a51.05,51.05,0,0,0-5.48-22H133.22A51.05,51.05,0,0,0,127.74,94.36Z" transform="translate(-64.32 -57.06)"/><path class="cls-16" d="M127.74,94.36c0,19.88,14.54,36,14.54,36s14.55-16.12,14.55-36a51.05,51.05,0,0,0-5.48-22H133.22A51.05,51.05,0,0,0,127.74,94.36Z" transform="translate(-64.32 -57.06)"/><path class="cls-17" d="M127.74,94.36c0,19.88,14.54,36,14.54,36s14.55-16.12,14.55-36a51.05,51.05,0,0,0-5.48-22H133.22A51.05,51.05,0,0,0,127.74,94.36Z" transform="translate(-64.32 -57.06)"/><path class="cls-18" d="M133.22,72.35h18.13a65.6,65.6,0,0,0-9.07-14A65.81,65.81,0,0,0,133.22,72.35Z" transform="translate(-64.32 -57.06)"/><path class="cls-19" d="M133.22,72.35h18.13a65.6,65.6,0,0,0-9.07-14A65.81,65.81,0,0,0,133.22,72.35Z" transform="translate(-64.32 -57.06)"/><path class="cls-20" d="M133.22,72.35h18.13a65.6,65.6,0,0,0-9.07-14A65.81,65.81,0,0,0,133.22,72.35Z" transform="translate(-64.32 -57.06)"/><path class="cls-21" d="M133.22,72.35h18.13a65.6,65.6,0,0,0-9.07-14A65.81,65.81,0,0,0,133.22,72.35Z" transform="translate(-64.32 -57.06)"/><path class="cls-22" d="M133.22,72.35h18.13a65.6,65.6,0,0,0-9.07-14A65.81,65.81,0,0,0,133.22,72.35Z" transform="translate(-64.32 -57.06)"/><path class="cls-23" d="M133.22,72.35h18.13a65.6,65.6,0,0,0-9.07-14A65.81,65.81,0,0,0,133.22,72.35Z" transform="translate(-64.32 -57.06)"/><path class="cls-24" d="M133.22,72.35h18.13a65.6,65.6,0,0,0-9.07-14A65.81,65.81,0,0,0,133.22,72.35Z" transform="translate(-64.32 -57.06)"/><path class="cls-25" d="M133.22,72.35h18.13a65.6,65.6,0,0,0-9.07-14A65.81,65.81,0,0,0,133.22,72.35Z" transform="translate(-64.32 -57.06)"/><path class="cls-26" d="M133.22,72.35h18.13a65.6,65.6,0,0,0-9.07-14A65.81,65.81,0,0,0,133.22,72.35Z" transform="translate(-64.32 -57.06)"/><path class="cls-18" d="M141.28,129.35s-4.45-1.82-12.5-1.08c-5.31.48-11.11,3.54-11.11,3.54,1.24-4.26,9.12-14.59,13.55-17.68" transform="translate(-64.32 -57.06)"/><path class="cls-19" d="M141.28,129.35s-4.45-1.82-12.5-1.08c-5.31.48-11.11,3.54-11.11,3.54,1.24-4.26,9.12-14.59,13.55-17.68" transform="translate(-64.32 -57.06)"/><path class="cls-20" d="M141.28,129.35s-4.45-1.82-12.5-1.08c-5.31.48-11.11,3.54-11.11,3.54,1.24-4.26,9.12-14.59,13.55-17.68" transform="translate(-64.32 -57.06)"/><path class="cls-21" d="M141.28,129.35s-4.45-1.82-12.5-1.08c-5.31.48-11.11,3.54-11.11,3.54,1.24-4.26,9.12-14.59,13.55-17.68" transform="translate(-64.32 -57.06)"/><path class="cls-22" d="M141.28,129.35s-4.45-1.82-12.5-1.08c-5.31.48-11.11,3.54-11.11,3.54,1.24-4.26,9.12-14.59,13.55-17.68" transform="translate(-64.32 -57.06)"/><path class="cls-23" d="M141.28,129.35s-4.45-1.82-12.5-1.08c-5.31.48-11.11,3.54-11.11,3.54,1.24-4.26,9.12-14.59,13.55-17.68" transform="translate(-64.32 -57.06)"/><path class="cls-24" d="M141.28,129.35s-4.45-1.82-12.5-1.08c-5.31.48-11.11,3.54-11.11,3.54,1.24-4.26,9.12-14.59,13.55-17.68" transform="translate(-64.32 -57.06)"/><path class="cls-25" d="M141.28,129.35s-4.45-1.82-12.5-1.08c-5.31.48-11.11,3.54-11.11,3.54,1.24-4.26,9.12-14.59,13.55-17.68" transform="translate(-64.32 -57.06)"/><path class="cls-26" d="M141.28,129.35s-4.45-1.82-12.5-1.08c-5.31.48-11.11,3.54-11.11,3.54,1.24-4.26,9.12-14.59,13.55-17.68" transform="translate(-64.32 -57.06)"/><path class="cls-18" d="M142.82,129.35s4.44-1.82,12.49-1.08c5.31.48,11.11,3.54,11.11,3.54-1.25-4.26-9.12-14.59-13.55-17.68" transform="translate(-64.32 -57.06)"/><path class="cls-19" d="M142.82,129.35s4.44-1.82,12.49-1.08c5.31.48,11.11,3.54,11.11,3.54-1.25-4.26-9.12-14.59-13.55-17.68" transform="translate(-64.32 -57.06)"/><path class="cls-20" d="M142.82,129.35s4.44-1.82,12.49-1.08c5.31.48,11.11,3.54,11.11,3.54-1.25-4.26-9.12-14.59-13.55-17.68" transform="translate(-64.32 -57.06)"/><path class="cls-21" d="M142.82,129.35s4.44-1.82,12.49-1.08c5.31.48,11.11,3.54,11.11,3.54-1.25-4.26-9.12-14.59-13.55-17.68" transform="translate(-64.32 -57.06)"/><path class="cls-22" d="M142.82,129.35s4.44-1.82,12.49-1.08c5.31.48,11.11,3.54,11.11,3.54-1.25-4.26-9.12-14.59-13.55-17.68" transform="translate(-64.32 -57.06)"/><path class="cls-23" d="M142.82,129.35s4.44-1.82,12.49-1.08c5.31.48,11.11,3.54,11.11,3.54-1.25-4.26-9.12-14.59-13.55-17.68" transform="translate(-64.32 -57.06)"/><path class="cls-24" d="M142.82,129.35s4.44-1.82,12.49-1.08c5.31.48,11.11,3.54,11.11,3.54-1.25-4.26-9.12-14.59-13.55-17.68" transform="translate(-64.32 -57.06)"/><path class="cls-25" d="M142.82,129.35s4.44-1.82,12.49-1.08c5.31.48,11.11,3.54,11.11,3.54-1.25-4.26-9.12-14.59-13.55-17.68" transform="translate(-64.32 -57.06)"/><path class="cls-26" d="M142.82,129.35s4.44-1.82,12.49-1.08c5.31.48,11.11,3.54,11.11,3.54-1.25-4.26-9.12-14.59-13.55-17.68" transform="translate(-64.32 -57.06)"/><path class="cls-9" d="M149.85,90.42a7.57,7.57,0,1,1-7.57-7.57A7.57,7.57,0,0,1,149.85,90.42Z" transform="translate(-64.32 -57.06)"/><path class="cls-10" d="M149.85,90.42a7.57,7.57,0,1,1-7.57-7.57A7.57,7.57,0,0,1,149.85,90.42Z" transform="translate(-64.32 -57.06)"/><path class="cls-11" d="M149.85,90.42a7.57,7.57,0,1,1-7.57-7.57A7.57,7.57,0,0,1,149.85,90.42Z" transform="translate(-64.32 -57.06)"/><path class="cls-12" d="M149.85,90.42a7.57,7.57,0,1,1-7.57-7.57A7.57,7.57,0,0,1,149.85,90.42Z" transform="translate(-64.32 -57.06)"/><path class="cls-13" d="M149.85,90.42a7.57,7.57,0,1,1-7.57-7.57A7.57,7.57,0,0,1,149.85,90.42Z" transform="translate(-64.32 -57.06)"/><path class="cls-14" d="M149.85,90.42a7.57,7.57,0,1,1-7.57-7.57A7.57,7.57,0,0,1,149.85,90.42Z" transform="translate(-64.32 -57.06)"/><path class="cls-15" d="M149.85,90.42a7.57,7.57,0,1,1-7.57-7.57A7.57,7.57,0,0,1,149.85,90.42Z" transform="translate(-64.32 -57.06)"/><path class="cls-16" d="M149.85,90.42a7.57,7.57,0,1,1-7.57-7.57A7.57,7.57,0,0,1,149.85,90.42Z" transform="translate(-64.32 -57.06)"/><path class="cls-17" d="M149.85,90.42a7.57,7.57,0,1,1-7.57-7.57A7.57,7.57,0,0,1,149.85,90.42Z" transform="translate(-64.32 -57.06)"/><line class="cls-9" x1="72.49" y1="56.27" x2="83.44" y2="56.27"/><line class="cls-10" x1="72.49" y1="56.27" x2="83.44" y2="56.27"/><line class="cls-11" x1="72.49" y1="56.27" x2="83.44" y2="56.27"/><line class="cls-12" x1="72.49" y1="56.27" x2="83.44" y2="56.27"/><line class="cls-13" x1="72.49" y1="56.27" x2="83.44" y2="56.27"/><line class="cls-14" x1="72.49" y1="56.27" x2="83.44" y2="56.27"/><line class="cls-15" x1="72.49" y1="56.27" x2="83.44" y2="56.27"/><line class="cls-16" x1="72.49" y1="56.27" x2="83.44" y2="56.27"/><line class="cls-17" x1="72.49" y1="56.27" x2="83.44" y2="56.27"/><line class="cls-18" x1="77.96" y1="60.35" x2="77.96" y2="75.79"/><line class="cls-19" x1="77.96" y1="60.35" x2="77.96" y2="75.79"/><line class="cls-20" x1="77.96" y1="60.35" x2="77.96" y2="75.79"/><line class="cls-21" x1="77.96" y1="60.35" x2="77.96" y2="75.79"/><line class="cls-22" x1="77.96" y1="60.35" x2="77.96" y2="75.79"/><line class="cls-23" x1="77.96" y1="60.35" x2="77.96" y2="75.79"/><line class="cls-24" x1="77.96" y1="60.35" x2="77.96" y2="75.79"/><line class="cls-25" x1="77.96" y1="60.35" x2="77.96" y2="75.79"/><line class="cls-26" x1="77.96" y1="60.35" x2="77.96" y2="75.79"/><polyline class="cls-27" points="84.12 75.23 89.94 77.69 83.67 78.5 87.24 83.72 81.53 81.01 81.7 87.33 78.36 81.96 75.09 87.37 75.19 81.05 69.52 83.84 73.01 78.57 66.73 77.84 72.52 75.31"/><polyline class="cls-28" points="84.12 75.23 89.94 77.69 83.67 78.5 87.24 83.72 81.53 81.01 81.7 87.33 78.36 81.96 75.09 87.37 75.19 81.05 69.52 83.84 73.01 78.57 66.73 77.84 72.52 75.31"/><polyline class="cls-29" points="84.12 75.23 89.94 77.69 83.67 78.5 87.24 83.72 81.53 81.01 81.7 87.33 78.36 81.96 75.09 87.37 75.19 81.05 69.52 83.84 73.01 78.57 66.73 77.84 72.52 75.31"/><polyline class="cls-30" points="84.12 75.23 89.94 77.69 83.67 78.5 87.24 83.72 81.53 81.01 81.7 87.33 78.36 81.96 75.09 87.37 75.19 81.05 69.52 83.84 73.01 78.57 66.73 77.84 72.52 75.31"/><polyline class="cls-31" points="84.12 75.23 89.94 77.69 83.67 78.5 87.24 83.72 81.53 81.01 81.7 87.33 78.36 81.96 75.09 87.37 75.19 81.05 69.52 83.84 73.01 78.57 66.73 77.84 72.52 75.31"/><polyline class="cls-32" points="84.12 75.23 89.94 77.69 83.67 78.5 87.24 83.72 81.53 81.01 81.7 87.33 78.36 81.96 75.09 87.37 75.19 81.05 69.52 83.84 73.01 78.57 66.73 77.84 72.52 75.31"/><polyline class="cls-33" points="84.12 75.23 89.94 77.69 83.67 78.5 87.24 83.72 81.53 81.01 81.7 87.33 78.36 81.96 75.09 87.37 75.19 81.05 69.52 83.84 73.01 78.57 66.73 77.84 72.52 75.31"/><polyline class="cls-34" points="84.12 75.23 89.94 77.69 83.67 78.5 87.24 83.72 81.53 81.01 81.7 87.33 78.36 81.96 75.09 87.37 75.19 81.05 69.52 83.84 73.01 78.57 66.73 77.84 72.52 75.31"/><path class="cls-9" d="M171.92,205.09c8,12.09,20.19,18.25,29.55,14.06,11-4.93,13.95-22.38,6.52-39-.64-1.44-.82-9.58-.82-12.48a27.56,27.56,0,0,0-45.28-21.12H122.2a27.56,27.56,0,0,0-45.28,21.12c0,2.9-.18,11-.82,12.48-7.43,16.58-4.51,34,6.52,39,9.21,4.12,21.15-1.77,29.16-13.48" transform="translate(-64.32 -57.06)"/><path class="cls-10" d="M171.92,205.09c8,12.09,20.19,18.25,29.55,14.06,11-4.93,13.95-22.38,6.52-39-.64-1.44-.82-9.58-.82-12.48a27.56,27.56,0,0,0-45.28-21.12H122.2a27.56,27.56,0,0,0-45.28,21.12c0,2.9-.18,11-.82,12.48-7.43,16.58-4.51,34,6.52,39,9.21,4.12,21.15-1.77,29.16-13.48" transform="translate(-64.32 -57.06)"/><path class="cls-11" d="M171.92,205.09c8,12.09,20.19,18.25,29.55,14.06,11-4.93,13.95-22.38,6.52-39-.64-1.44-.82-9.58-.82-12.48a27.56,27.56,0,0,0-45.28-21.12H122.2a27.56,27.56,0,0,0-45.28,21.12c0,2.9-.18,11-.82,12.48-7.43,16.58-4.51,34,6.52,39,9.21,4.12,21.15-1.77,29.16-13.48" transform="translate(-64.32 -57.06)"/><path class="cls-12" d="M171.92,205.09c8,12.09,20.19,18.25,29.55,14.06,11-4.93,13.95-22.38,6.52-39-.64-1.44-.82-9.58-.82-12.48a27.56,27.56,0,0,0-45.28-21.12H122.2a27.56,27.56,0,0,0-45.28,21.12c0,2.9-.18,11-.82,12.48-7.43,16.58-4.51,34,6.52,39,9.21,4.12,21.15-1.77,29.16-13.48" transform="translate(-64.32 -57.06)"/><path class="cls-13" d="M171.92,205.09c8,12.09,20.19,18.25,29.55,14.06,11-4.93,13.95-22.38,6.52-39-.64-1.44-.82-9.58-.82-12.48a27.56,27.56,0,0,0-45.28-21.12H122.2a27.56,27.56,0,0,0-45.28,21.12c0,2.9-.18,11-.82,12.48-7.43,16.58-4.51,34,6.52,39,9.21,4.12,21.15-1.77,29.16-13.48" transform="translate(-64.32 -57.06)"/><path class="cls-14" d="M171.92,205.09c8,12.09,20.19,18.25,29.55,14.06,11-4.93,13.95-22.38,6.52-39-.64-1.44-.82-9.58-.82-12.48a27.56,27.56,0,0,0-45.28-21.12H122.2a27.56,27.56,0,0,0-45.28,21.12c0,2.9-.18,11-.82,12.48-7.43,16.58-4.51,34,6.52,39,9.21,4.12,21.15-1.77,29.16-13.48" transform="translate(-64.32 -57.06)"/><path class="cls-15" d="M171.92,205.09c8,12.09,20.19,18.25,29.55,14.06,11-4.93,13.95-22.38,6.52-39-.64-1.44-.82-9.58-.82-12.48a27.56,27.56,0,0,0-45.28-21.12H122.2a27.56,27.56,0,0,0-45.28,21.12c0,2.9-.18,11-.82,12.48-7.43,16.58-4.51,34,6.52,39,9.21,4.12,21.15-1.77,29.16-13.48" transform="translate(-64.32 -57.06)"/><path class="cls-16" d="M171.92,205.09c8,12.09,20.19,18.25,29.55,14.06,11-4.93,13.95-22.38,6.52-39-.64-1.44-.82-9.58-.82-12.48a27.56,27.56,0,0,0-45.28-21.12H122.2a27.56,27.56,0,0,0-45.28,21.12c0,2.9-.18,11-.82,12.48-7.43,16.58-4.51,34,6.52,39,9.21,4.12,21.15-1.77,29.16-13.48" transform="translate(-64.32 -57.06)"/><path class="cls-17" d="M171.92,205.09c8,12.09,20.19,18.25,29.55,14.06,11-4.93,13.95-22.38,6.52-39-.64-1.44-.82-9.58-.82-12.48a27.56,27.56,0,0,0-45.28-21.12H122.2a27.56,27.56,0,0,0-45.28,21.12c0,2.9-.18,11-.82,12.48-7.43,16.58-4.51,34,6.52,39,9.21,4.12,21.15-1.77,29.16-13.48" transform="translate(-64.32 -57.06)"/><line class="cls-9" x1="65.15" y1="133.17" x2="87.79" y2="133.17"/><line class="cls-10" x1="65.15" y1="133.17" x2="87.79" y2="133.17"/><line class="cls-11" x1="65.15" y1="133.17" x2="87.79" y2="133.17"/><line class="cls-12" x1="65.15" y1="133.17" x2="87.79" y2="133.17"/><line class="cls-13" x1="65.15" y1="133.17" x2="87.79" y2="133.17"/><line class="cls-14" x1="65.15" y1="133.17" x2="87.79" y2="133.17"/><line class="cls-15" x1="65.15" y1="133.17" x2="87.79" y2="133.17"/><line class="cls-16" x1="65.15" y1="133.17" x2="87.79" y2="133.17"/><line class="cls-17" x1="65.15" y1="133.17" x2="87.79" y2="133.17"/><path class="cls-18" d="M127.47,193.29a10.88,10.88,0,1,1-10.88-10.88A10.88,10.88,0,0,1,127.47,193.29Z" transform="translate(-64.32 -57.06)"/><path class="cls-19" d="M127.47,193.29a10.88,10.88,0,1,1-10.88-10.88A10.88,10.88,0,0,1,127.47,193.29Z" transform="translate(-64.32 -57.06)"/><path class="cls-20" d="M127.47,193.29a10.88,10.88,0,1,1-10.88-10.88A10.88,10.88,0,0,1,127.47,193.29Z" transform="translate(-64.32 -57.06)"/><path class="cls-21" d="M127.47,193.29a10.88,10.88,0,1,1-10.88-10.88A10.88,10.88,0,0,1,127.47,193.29Z" transform="translate(-64.32 -57.06)"/><path class="cls-22" d="M127.47,193.29a10.88,10.88,0,1,1-10.88-10.88A10.88,10.88,0,0,1,127.47,193.29Z" transform="translate(-64.32 -57.06)"/><path class="cls-23" d="M127.47,193.29a10.88,10.88,0,1,1-10.88-10.88A10.88,10.88,0,0,1,127.47,193.29Z" transform="translate(-64.32 -57.06)"/><path class="cls-24" d="M127.47,193.29a10.88,10.88,0,1,1-10.88-10.88A10.88,10.88,0,0,1,127.47,193.29Z" transform="translate(-64.32 -57.06)"/><path class="cls-25" d="M127.47,193.29a10.88,10.88,0,1,1-10.88-10.88A10.88,10.88,0,0,1,127.47,193.29Z" transform="translate(-64.32 -57.06)"/><path class="cls-26" d="M127.47,193.29a10.88,10.88,0,1,1-10.88-10.88A10.88,10.88,0,0,1,127.47,193.29Z" transform="translate(-64.32 -57.06)"/><path class="cls-18" d="M123.43,193.29a6.84,6.84,0,1,1-6.84-6.84A6.84,6.84,0,0,1,123.43,193.29Z" transform="translate(-64.32 -57.06)"/><path class="cls-19" d="M123.43,193.29a6.84,6.84,0,1,1-6.84-6.84A6.84,6.84,0,0,1,123.43,193.29Z" transform="translate(-64.32 -57.06)"/><path class="cls-20" d="M123.43,193.29a6.84,6.84,0,1,1-6.84-6.84A6.84,6.84,0,0,1,123.43,193.29Z" transform="translate(-64.32 -57.06)"/><path class="cls-21" d="M123.43,193.29a6.84,6.84,0,1,1-6.84-6.84A6.84,6.84,0,0,1,123.43,193.29Z" transform="translate(-64.32 -57.06)"/><path class="cls-22" d="M123.43,193.29a6.84,6.84,0,1,1-6.84-6.84A6.84,6.84,0,0,1,123.43,193.29Z" transform="translate(-64.32 -57.06)"/><path class="cls-23" d="M123.43,193.29a6.84,6.84,0,1,1-6.84-6.84A6.84,6.84,0,0,1,123.43,193.29Z" transform="translate(-64.32 -57.06)"/><path class="cls-24" d="M123.43,193.29a6.84,6.84,0,1,1-6.84-6.84A6.84,6.84,0,0,1,123.43,193.29Z" transform="translate(-64.32 -57.06)"/><path class="cls-25" d="M123.43,193.29a6.84,6.84,0,1,1-6.84-6.84A6.84,6.84,0,0,1,123.43,193.29Z" transform="translate(-64.32 -57.06)"/><path class="cls-26" d="M123.43,193.29a6.84,6.84,0,1,1-6.84-6.84A6.84,6.84,0,0,1,123.43,193.29Z" transform="translate(-64.32 -57.06)"/><path class="cls-18" d="M176.14,193.29a10.88,10.88,0,1,1-10.88-10.88A10.88,10.88,0,0,1,176.14,193.29Z" transform="translate(-64.32 -57.06)"/><path class="cls-19" d="M176.14,193.29a10.88,10.88,0,1,1-10.88-10.88A10.88,10.88,0,0,1,176.14,193.29Z" transform="translate(-64.32 -57.06)"/><path class="cls-20" d="M176.14,193.29a10.88,10.88,0,1,1-10.88-10.88A10.88,10.88,0,0,1,176.14,193.29Z" transform="translate(-64.32 -57.06)"/><path class="cls-21" d="M176.14,193.29a10.88,10.88,0,1,1-10.88-10.88A10.88,10.88,0,0,1,176.14,193.29Z" transform="translate(-64.32 -57.06)"/><path class="cls-22" d="M176.14,193.29a10.88,10.88,0,1,1-10.88-10.88A10.88,10.88,0,0,1,176.14,193.29Z" transform="translate(-64.32 -57.06)"/><path class="cls-23" d="M176.14,193.29a10.88,10.88,0,1,1-10.88-10.88A10.88,10.88,0,0,1,176.14,193.29Z" transform="translate(-64.32 -57.06)"/><path class="cls-24" d="M176.14,193.29a10.88,10.88,0,1,1-10.88-10.88A10.88,10.88,0,0,1,176.14,193.29Z" transform="translate(-64.32 -57.06)"/><path class="cls-25" d="M176.14,193.29a10.88,10.88,0,1,1-10.88-10.88A10.88,10.88,0,0,1,176.14,193.29Z" transform="translate(-64.32 -57.06)"/><path class="cls-26" d="M176.14,193.29a10.88,10.88,0,1,1-10.88-10.88A10.88,10.88,0,0,1,176.14,193.29Z" transform="translate(-64.32 -57.06)"/><path class="cls-18" d="M172.09,193.29a6.84,6.84,0,1,1-6.83-6.84A6.83,6.83,0,0,1,172.09,193.29Z" transform="translate(-64.32 -57.06)"/><path class="cls-19" d="M172.09,193.29a6.84,6.84,0,1,1-6.83-6.84A6.83,6.83,0,0,1,172.09,193.29Z" transform="translate(-64.32 -57.06)"/><path class="cls-20" d="M172.09,193.29a6.84,6.84,0,1,1-6.83-6.84A6.83,6.83,0,0,1,172.09,193.29Z" transform="translate(-64.32 -57.06)"/><path class="cls-21" d="M172.09,193.29a6.84,6.84,0,1,1-6.83-6.84A6.83,6.83,0,0,1,172.09,193.29Z" transform="translate(-64.32 -57.06)"/><path class="cls-22" d="M172.09,193.29a6.84,6.84,0,1,1-6.83-6.84A6.83,6.83,0,0,1,172.09,193.29Z" transform="translate(-64.32 -57.06)"/><path class="cls-23" d="M172.09,193.29a6.84,6.84,0,1,1-6.83-6.84A6.83,6.83,0,0,1,172.09,193.29Z" transform="translate(-64.32 -57.06)"/><path class="cls-24" d="M172.09,193.29a6.84,6.84,0,1,1-6.83-6.84A6.83,6.83,0,0,1,172.09,193.29Z" transform="translate(-64.32 -57.06)"/><path class="cls-25" d="M172.09,193.29a6.84,6.84,0,1,1-6.83-6.84A6.83,6.83,0,0,1,172.09,193.29Z" transform="translate(-64.32 -57.06)"/><path class="cls-26" d="M172.09,193.29a6.84,6.84,0,1,1-6.83-6.84A6.83,6.83,0,0,1,172.09,193.29Z" transform="translate(-64.32 -57.06)"/><path class="cls-1" d="M113.29,163h-5.44v-5.44a2.6,2.6,0,0,0-2.61-2.6h-3.48a2.6,2.6,0,0,0-2.61,2.6V163H93.71a2.61,2.61,0,0,0-2.61,2.62v3.48a2.61,2.61,0,0,0,2.61,2.61h5.44v5.43a2.61,2.61,0,0,0,2.61,2.61h3.48a2.61,2.61,0,0,0,2.61-2.61v-5.43h5.44a2.61,2.61,0,0,0,2.61-2.61v-3.48A2.61,2.61,0,0,0,113.29,163Z" transform="translate(-64.32 -57.06)"/><path class="cls-2" d="M113.29,163h-5.44v-5.44a2.6,2.6,0,0,0-2.61-2.6h-3.48a2.6,2.6,0,0,0-2.61,2.6V163H93.71a2.61,2.61,0,0,0-2.61,2.62v3.48a2.61,2.61,0,0,0,2.61,2.61h5.44v5.43a2.61,2.61,0,0,0,2.61,2.61h3.48a2.61,2.61,0,0,0,2.61-2.61v-5.43h5.44a2.61,2.61,0,0,0,2.61-2.61v-3.48A2.61,2.61,0,0,0,113.29,163Z" transform="translate(-64.32 -57.06)"/><path class="cls-3" d="M113.29,163h-5.44v-5.44a2.6,2.6,0,0,0-2.61-2.6h-3.48a2.6,2.6,0,0,0-2.61,2.6V163H93.71a2.61,2.61,0,0,0-2.61,2.62v3.48a2.61,2.61,0,0,0,2.61,2.61h5.44v5.43a2.61,2.61,0,0,0,2.61,2.61h3.48a2.61,2.61,0,0,0,2.61-2.61v-5.43h5.44a2.61,2.61,0,0,0,2.61-2.61v-3.48A2.61,2.61,0,0,0,113.29,163Z" transform="translate(-64.32 -57.06)"/><path class="cls-4" d="M113.29,163h-5.44v-5.44a2.6,2.6,0,0,0-2.61-2.6h-3.48a2.6,2.6,0,0,0-2.61,2.6V163H93.71a2.61,2.61,0,0,0-2.61,2.62v3.48a2.61,2.61,0,0,0,2.61,2.61h5.44v5.43a2.61,2.61,0,0,0,2.61,2.61h3.48a2.61,2.61,0,0,0,2.61-2.61v-5.43h5.44a2.61,2.61,0,0,0,2.61-2.61v-3.48A2.61,2.61,0,0,0,113.29,163Z" transform="translate(-64.32 -57.06)"/><path class="cls-5" d="M113.29,163h-5.44v-5.44a2.6,2.6,0,0,0-2.61-2.6h-3.48a2.6,2.6,0,0,0-2.61,2.6V163H93.71a2.61,2.61,0,0,0-2.61,2.62v3.48a2.61,2.61,0,0,0,2.61,2.61h5.44v5.43a2.61,2.61,0,0,0,2.61,2.61h3.48a2.61,2.61,0,0,0,2.61-2.61v-5.43h5.44a2.61,2.61,0,0,0,2.61-2.61v-3.48A2.61,2.61,0,0,0,113.29,163Z" transform="translate(-64.32 -57.06)"/><path class="cls-6" d="M113.29,163h-5.44v-5.44a2.6,2.6,0,0,0-2.61-2.6h-3.48a2.6,2.6,0,0,0-2.61,2.6V163H93.71a2.61,2.61,0,0,0-2.61,2.62v3.48a2.61,2.61,0,0,0,2.61,2.61h5.44v5.43a2.61,2.61,0,0,0,2.61,2.61h3.48a2.61,2.61,0,0,0,2.61-2.61v-5.43h5.44a2.61,2.61,0,0,0,2.61-2.61v-3.48A2.61,2.61,0,0,0,113.29,163Z" transform="translate(-64.32 -57.06)"/><path class="cls-7" d="M113.29,163h-5.44v-5.44a2.6,2.6,0,0,0-2.61-2.6h-3.48a2.6,2.6,0,0,0-2.61,2.6V163H93.71a2.61,2.61,0,0,0-2.61,2.62v3.48a2.61,2.61,0,0,0,2.61,2.61h5.44v5.43a2.61,2.61,0,0,0,2.61,2.61h3.48a2.61,2.61,0,0,0,2.61-2.61v-5.43h5.44a2.61,2.61,0,0,0,2.61-2.61v-3.48A2.61,2.61,0,0,0,113.29,163Z" transform="translate(-64.32 -57.06)"/><path class="cls-8" d="M113.29,163h-5.44v-5.44a2.6,2.6,0,0,0-2.61-2.6h-3.48a2.6,2.6,0,0,0-2.61,2.6V163H93.71a2.61,2.61,0,0,0-2.61,2.62v3.48a2.61,2.61,0,0,0,2.61,2.61h5.44v5.43a2.61,2.61,0,0,0,2.61,2.61h3.48a2.61,2.61,0,0,0,2.61-2.61v-5.43h5.44a2.61,2.61,0,0,0,2.61-2.61v-3.48A2.61,2.61,0,0,0,113.29,163Z" transform="translate(-64.32 -57.06)"/><path class="cls-1" d="M183.52,156.37a3.81,3.81,0,1,1-3.81-3.8A3.81,3.81,0,0,1,183.52,156.37Z" transform="translate(-64.32 -57.06)"/><path class="cls-2" d="M183.52,156.37a3.81,3.81,0,1,1-3.81-3.8A3.81,3.81,0,0,1,183.52,156.37Z" transform="translate(-64.32 -57.06)"/><path class="cls-3" d="M183.52,156.37a3.81,3.81,0,1,1-3.81-3.8A3.81,3.81,0,0,1,183.52,156.37Z" transform="translate(-64.32 -57.06)"/><path class="cls-4" d="M183.52,156.37a3.81,3.81,0,1,1-3.81-3.8A3.81,3.81,0,0,1,183.52,156.37Z" transform="translate(-64.32 -57.06)"/><path class="cls-5" d="M183.52,156.37a3.81,3.81,0,1,1-3.81-3.8A3.81,3.81,0,0,1,183.52,156.37Z" transform="translate(-64.32 -57.06)"/><path class="cls-6" d="M183.52,156.37a3.81,3.81,0,1,1-3.81-3.8A3.81,3.81,0,0,1,183.52,156.37Z" transform="translate(-64.32 -57.06)"/><path class="cls-7" d="M183.52,156.37a3.81,3.81,0,1,1-3.81-3.8A3.81,3.81,0,0,1,183.52,156.37Z" transform="translate(-64.32 -57.06)"/><path class="cls-8" d="M183.52,156.37a3.81,3.81,0,1,1-3.81-3.8A3.81,3.81,0,0,1,183.52,156.37Z" transform="translate(-64.32 -57.06)"/><path class="cls-1" d="M183.52,175.63a3.81,3.81,0,1,1-3.81-3.81A3.81,3.81,0,0,1,183.52,175.63Z" transform="translate(-64.32 -57.06)"/><path class="cls-2" d="M183.52,175.63a3.81,3.81,0,1,1-3.81-3.81A3.81,3.81,0,0,1,183.52,175.63Z" transform="translate(-64.32 -57.06)"/><path class="cls-3" d="M183.52,175.63a3.81,3.81,0,1,1-3.81-3.81A3.81,3.81,0,0,1,183.52,175.63Z" transform="translate(-64.32 -57.06)"/><path class="cls-4" d="M183.52,175.63a3.81,3.81,0,1,1-3.81-3.81A3.81,3.81,0,0,1,183.52,175.63Z" transform="translate(-64.32 -57.06)"/><path class="cls-5" d="M183.52,175.63a3.81,3.81,0,1,1-3.81-3.81A3.81,3.81,0,0,1,183.52,175.63Z" transform="translate(-64.32 -57.06)"/><path class="cls-6" d="M183.52,175.63a3.81,3.81,0,1,1-3.81-3.81A3.81,3.81,0,0,1,183.52,175.63Z" transform="translate(-64.32 -57.06)"/><path class="cls-7" d="M183.52,175.63a3.81,3.81,0,1,1-3.81-3.81A3.81,3.81,0,0,1,183.52,175.63Z" transform="translate(-64.32 -57.06)"/><path class="cls-8" d="M183.52,175.63a3.81,3.81,0,1,1-3.81-3.81A3.81,3.81,0,0,1,183.52,175.63Z" transform="translate(-64.32 -57.06)"/><path class="cls-1" d="M189.33,169.81a3.81,3.81,0,1,1,3.81-3.81A3.82,3.82,0,0,1,189.33,169.81Z" transform="translate(-64.32 -57.06)"/><path class="cls-2" d="M189.33,169.81a3.81,3.81,0,1,1,3.81-3.81A3.82,3.82,0,0,1,189.33,169.81Z" transform="translate(-64.32 -57.06)"/><path class="cls-3" d="M189.33,169.81a3.81,3.81,0,1,1,3.81-3.81A3.82,3.82,0,0,1,189.33,169.81Z" transform="translate(-64.32 -57.06)"/><path class="cls-4" d="M189.33,169.81a3.81,3.81,0,1,1,3.81-3.81A3.82,3.82,0,0,1,189.33,169.81Z" transform="translate(-64.32 -57.06)"/><path class="cls-5" d="M189.33,169.81a3.81,3.81,0,1,1,3.81-3.81A3.82,3.82,0,0,1,189.33,169.81Z" transform="translate(-64.32 -57.06)"/><path class="cls-6" d="M189.33,169.81a3.81,3.81,0,1,1,3.81-3.81A3.82,3.82,0,0,1,189.33,169.81Z" transform="translate(-64.32 -57.06)"/><path class="cls-7" d="M189.33,169.81a3.81,3.81,0,1,1,3.81-3.81A3.82,3.82,0,0,1,189.33,169.81Z" transform="translate(-64.32 -57.06)"/><path class="cls-8" d="M189.33,169.81a3.81,3.81,0,1,1,3.81-3.81A3.82,3.82,0,0,1,189.33,169.81Z" transform="translate(-64.32 -57.06)"/><path class="cls-1" d="M170.08,169.81a3.81,3.81,0,1,1,3.81-3.81A3.81,3.81,0,0,1,170.08,169.81Z" transform="translate(-64.32 -57.06)"/><path class="cls-2" d="M170.08,169.81a3.81,3.81,0,1,1,3.81-3.81A3.81,3.81,0,0,1,170.08,169.81Z" transform="translate(-64.32 -57.06)"/><path class="cls-3" d="M170.08,169.81a3.81,3.81,0,1,1,3.81-3.81A3.81,3.81,0,0,1,170.08,169.81Z" transform="translate(-64.32 -57.06)"/><path class="cls-4" d="M170.08,169.81a3.81,3.81,0,1,1,3.81-3.81A3.81,3.81,0,0,1,170.08,169.81Z" transform="translate(-64.32 -57.06)"/><path class="cls-5" d="M170.08,169.81a3.81,3.81,0,1,1,3.81-3.81A3.81,3.81,0,0,1,170.08,169.81Z" transform="translate(-64.32 -57.06)"/><path class="cls-6" d="M170.08,169.81a3.81,3.81,0,1,1,3.81-3.81A3.81,3.81,0,0,1,170.08,169.81Z" transform="translate(-64.32 -57.06)"/><path class="cls-7" d="M170.08,169.81a3.81,3.81,0,1,1,3.81-3.81A3.81,3.81,0,0,1,170.08,169.81Z" transform="translate(-64.32 -57.06)"/><path class="cls-8" d="M170.08,169.81a3.81,3.81,0,1,1,3.81-3.81A3.81,3.81,0,0,1,170.08,169.81Z" transform="translate(-64.32 -57.06)"/><path class="cls-9" d="M158.25,177.5a4.46,4.46,0,0,1-4.46,4.46H130.3a4.46,4.46,0,0,1-4.46-4.46h0A4.46,4.46,0,0,1,130.3,173h23.49a4.46,4.46,0,0,1,4.46,4.46Z" transform="translate(-64.32 -57.06)"/><path class="cls-10" d="M158.25,177.5a4.46,4.46,0,0,1-4.46,4.46H130.3a4.46,4.46,0,0,1-4.46-4.46h0A4.46,4.46,0,0,1,130.3,173h23.49a4.46,4.46,0,0,1,4.46,4.46Z" transform="translate(-64.32 -57.06)"/><path class="cls-11" d="M158.25,177.5a4.46,4.46,0,0,1-4.46,4.46H130.3a4.46,4.46,0,0,1-4.46-4.46h0A4.46,4.46,0,0,1,130.3,173h23.49a4.46,4.46,0,0,1,4.46,4.46Z" transform="translate(-64.32 -57.06)"/><path class="cls-12" d="M158.25,177.5a4.46,4.46,0,0,1-4.46,4.46H130.3a4.46,4.46,0,0,1-4.46-4.46h0A4.46,4.46,0,0,1,130.3,173h23.49a4.46,4.46,0,0,1,4.46,4.46Z" transform="translate(-64.32 -57.06)"/><path class="cls-13" d="M158.25,177.5a4.46,4.46,0,0,1-4.46,4.46H130.3a4.46,4.46,0,0,1-4.46-4.46h0A4.46,4.46,0,0,1,130.3,173h23.49a4.46,4.46,0,0,1,4.46,4.46Z" transform="translate(-64.32 -57.06)"/><path class="cls-14" d="M158.25,177.5a4.46,4.46,0,0,1-4.46,4.46H130.3a4.46,4.46,0,0,1-4.46-4.46h0A4.46,4.46,0,0,1,130.3,173h23.49a4.46,4.46,0,0,1,4.46,4.46Z" transform="translate(-64.32 -57.06)"/><path class="cls-15" d="M158.25,177.5a4.46,4.46,0,0,1-4.46,4.46H130.3a4.46,4.46,0,0,1-4.46-4.46h0A4.46,4.46,0,0,1,130.3,173h23.49a4.46,4.46,0,0,1,4.46,4.46Z" transform="translate(-64.32 -57.06)"/><path class="cls-16" d="M158.25,177.5a4.46,4.46,0,0,1-4.46,4.46H130.3a4.46,4.46,0,0,1-4.46-4.46h0A4.46,4.46,0,0,1,130.3,173h23.49a4.46,4.46,0,0,1,4.46,4.46Z" transform="translate(-64.32 -57.06)"/><path class="cls-17" d="M158.25,177.5a4.46,4.46,0,0,1-4.46,4.46H130.3a4.46,4.46,0,0,1-4.46-4.46h0A4.46,4.46,0,0,1,130.3,173h23.49a4.46,4.46,0,0,1,4.46,4.46Z" transform="translate(-64.32 -57.06)"/><polygon class="cls-9" points="92.3 102.06 92.3 102.06 63.15 102.06 63.15 102.06 63.15 89.53 63.15 89.53 92.3 89.53 92.3 89.53 92.3 102.06"/><polygon class="cls-10" points="92.3 102.06 92.3 102.06 63.15 102.06 63.15 102.06 63.15 89.53 63.15 89.53 92.3 89.53 92.3 89.53 92.3 102.06"/><polygon class="cls-11" points="92.3 102.06 92.3 102.06 63.15 102.06 63.15 102.06 63.15 89.53 63.15 89.53 92.3 89.53 92.3 89.53 92.3 102.06"/><polygon class="cls-12" points="92.3 102.06 92.3 102.06 63.15 102.06 63.15 102.06 63.15 89.53 63.15 89.53 92.3 89.53 92.3 89.53 92.3 102.06"/><polygon class="cls-13" points="92.3 102.06 92.3 102.06 63.15 102.06 63.15 102.06 63.15 89.53 63.15 89.53 92.3 89.53 92.3 89.53 92.3 102.06"/><polygon class="cls-14" points="92.3 102.06 92.3 102.06 63.15 102.06 63.15 102.06 63.15 89.53 63.15 89.53 92.3 89.53 92.3 89.53 92.3 102.06"/><polygon class="cls-15" points="92.3 102.06 92.3 102.06 63.15 102.06 63.15 102.06 63.15 89.53 63.15 89.53 92.3 89.53 92.3 89.53 92.3 102.06"/><polygon class="cls-16" points="92.3 102.06 92.3 102.06 63.15 102.06 63.15 102.06 63.15 89.53 63.15 89.53 92.3 89.53 92.3 89.53 92.3 102.06"/><polygon class="cls-17" points="92.3 102.06 92.3 102.06 63.15 102.06 63.15 102.06 63.15 89.53 63.15 89.53 92.3 89.53 92.3 89.53 92.3 102.06"/><path class="cls-1" d="M185,86.29a1.43,1.43,0,0,1-1-.4,1.4,1.4,0,0,1,0-2l1.69-1.73a1.41,1.41,0,0,1,2,2L186,85.87A1.39,1.39,0,0,1,185,86.29Z" transform="translate(-64.32 -57.06)"/><path class="cls-2" d="M185,86.29a1.43,1.43,0,0,1-1-.4,1.4,1.4,0,0,1,0-2l1.69-1.73a1.41,1.41,0,0,1,2,2L186,85.87A1.39,1.39,0,0,1,185,86.29Z" transform="translate(-64.32 -57.06)"/><path class="cls-3" d="M185,86.29a1.43,1.43,0,0,1-1-.4,1.4,1.4,0,0,1,0-2l1.69-1.73a1.41,1.41,0,0,1,2,2L186,85.87A1.39,1.39,0,0,1,185,86.29Z" transform="translate(-64.32 -57.06)"/><path class="cls-4" d="M185,86.29a1.43,1.43,0,0,1-1-.4,1.4,1.4,0,0,1,0-2l1.69-1.73a1.41,1.41,0,0,1,2,2L186,85.87A1.39,1.39,0,0,1,185,86.29Z" transform="translate(-64.32 -57.06)"/><path class="cls-5" d="M185,86.29a1.43,1.43,0,0,1-1-.4,1.4,1.4,0,0,1,0-2l1.69-1.73a1.41,1.41,0,0,1,2,2L186,85.87A1.39,1.39,0,0,1,185,86.29Z" transform="translate(-64.32 -57.06)"/><path class="cls-6" d="M185,86.29a1.43,1.43,0,0,1-1-.4,1.4,1.4,0,0,1,0-2l1.69-1.73a1.41,1.41,0,0,1,2,2L186,85.87A1.39,1.39,0,0,1,185,86.29Z" transform="translate(-64.32 -57.06)"/><path class="cls-7" d="M185,86.29a1.43,1.43,0,0,1-1-.4,1.4,1.4,0,0,1,0-2l1.69-1.73a1.41,1.41,0,0,1,2,2L186,85.87A1.39,1.39,0,0,1,185,86.29Z" transform="translate(-64.32 -57.06)"/><path class="cls-8" d="M185,86.29a1.43,1.43,0,0,1-1-.4,1.4,1.4,0,0,1,0-2l1.69-1.73a1.41,1.41,0,0,1,2,2L186,85.87A1.39,1.39,0,0,1,185,86.29Z" transform="translate(-64.32 -57.06)"/><path class="cls-1" d="M167.27,104.4a1.39,1.39,0,0,1-1-.4,1.42,1.42,0,0,1,0-2l3-3a1.4,1.4,0,0,1,2,2l-3,3A1.41,1.41,0,0,1,167.27,104.4Zm5.92-6a1.4,1.4,0,0,1-1-2.38l3-3a1.4,1.4,0,1,1,2,2l-3,3A1.35,1.35,0,0,1,173.19,98.36Zm5.92-6a1.4,1.4,0,0,1-1-2.39l3-3a1.4,1.4,0,1,1,2,2l-3,3A1.46,1.46,0,0,1,179.11,92.33Z" transform="translate(-64.32 -57.06)"/><path class="cls-2" d="M167.27,104.4a1.39,1.39,0,0,1-1-.4,1.42,1.42,0,0,1,0-2l3-3a1.4,1.4,0,0,1,2,2l-3,3A1.41,1.41,0,0,1,167.27,104.4Zm5.92-6a1.4,1.4,0,0,1-1-2.38l3-3a1.4,1.4,0,1,1,2,2l-3,3A1.35,1.35,0,0,1,173.19,98.36Zm5.92-6a1.4,1.4,0,0,1-1-2.39l3-3a1.4,1.4,0,1,1,2,2l-3,3A1.46,1.46,0,0,1,179.11,92.33Z" transform="translate(-64.32 -57.06)"/><path class="cls-3" d="M167.27,104.4a1.39,1.39,0,0,1-1-.4,1.42,1.42,0,0,1,0-2l3-3a1.4,1.4,0,0,1,2,2l-3,3A1.41,1.41,0,0,1,167.27,104.4Zm5.92-6a1.4,1.4,0,0,1-1-2.38l3-3a1.4,1.4,0,1,1,2,2l-3,3A1.35,1.35,0,0,1,173.19,98.36Zm5.92-6a1.4,1.4,0,0,1-1-2.39l3-3a1.4,1.4,0,1,1,2,2l-3,3A1.46,1.46,0,0,1,179.11,92.33Z" transform="translate(-64.32 -57.06)"/><path class="cls-4" d="M167.27,104.4a1.39,1.39,0,0,1-1-.4,1.42,1.42,0,0,1,0-2l3-3a1.4,1.4,0,0,1,2,2l-3,3A1.41,1.41,0,0,1,167.27,104.4Zm5.92-6a1.4,1.4,0,0,1-1-2.38l3-3a1.4,1.4,0,1,1,2,2l-3,3A1.35,1.35,0,0,1,173.19,98.36Zm5.92-6a1.4,1.4,0,0,1-1-2.39l3-3a1.4,1.4,0,1,1,2,2l-3,3A1.46,1.46,0,0,1,179.11,92.33Z" transform="translate(-64.32 -57.06)"/><path class="cls-5" d="M167.27,104.4a1.39,1.39,0,0,1-1-.4,1.42,1.42,0,0,1,0-2l3-3a1.4,1.4,0,0,1,2,2l-3,3A1.41,1.41,0,0,1,167.27,104.4Zm5.92-6a1.4,1.4,0,0,1-1-2.38l3-3a1.4,1.4,0,1,1,2,2l-3,3A1.35,1.35,0,0,1,173.19,98.36Zm5.92-6a1.4,1.4,0,0,1-1-2.39l3-3a1.4,1.4,0,1,1,2,2l-3,3A1.46,1.46,0,0,1,179.11,92.33Z" transform="translate(-64.32 -57.06)"/><path class="cls-6" d="M167.27,104.4a1.39,1.39,0,0,1-1-.4,1.42,1.42,0,0,1,0-2l3-3a1.4,1.4,0,0,1,2,2l-3,3A1.41,1.41,0,0,1,167.27,104.4Zm5.92-6a1.4,1.4,0,0,1-1-2.38l3-3a1.4,1.4,0,1,1,2,2l-3,3A1.35,1.35,0,0,1,173.19,98.36Zm5.92-6a1.4,1.4,0,0,1-1-2.39l3-3a1.4,1.4,0,1,1,2,2l-3,3A1.46,1.46,0,0,1,179.11,92.33Z" transform="translate(-64.32 -57.06)"/><path class="cls-7" d="M167.27,104.4a1.39,1.39,0,0,1-1-.4,1.42,1.42,0,0,1,0-2l3-3a1.4,1.4,0,0,1,2,2l-3,3A1.41,1.41,0,0,1,167.27,104.4Zm5.92-6a1.4,1.4,0,0,1-1-2.38l3-3a1.4,1.4,0,1,1,2,2l-3,3A1.35,1.35,0,0,1,173.19,98.36Zm5.92-6a1.4,1.4,0,0,1-1-2.39l3-3a1.4,1.4,0,1,1,2,2l-3,3A1.46,1.46,0,0,1,179.11,92.33Z" transform="translate(-64.32 -57.06)"/><path class="cls-8" d="M167.27,104.4a1.39,1.39,0,0,1-1-.4,1.42,1.42,0,0,1,0-2l3-3a1.4,1.4,0,0,1,2,2l-3,3A1.41,1.41,0,0,1,167.27,104.4Zm5.92-6a1.4,1.4,0,0,1-1-2.38l3-3a1.4,1.4,0,1,1,2,2l-3,3A1.35,1.35,0,0,1,173.19,98.36Zm5.92-6a1.4,1.4,0,0,1-1-2.39l3-3a1.4,1.4,0,1,1,2,2l-3,3A1.46,1.46,0,0,1,179.11,92.33Z" transform="translate(-64.32 -57.06)"/><path class="cls-1" d="M162.6,109.15a1.41,1.41,0,0,1-1-2.39l1.7-1.73a1.4,1.4,0,1,1,2,2l-1.7,1.73A1.38,1.38,0,0,1,162.6,109.15Z" transform="translate(-64.32 -57.06)"/><path class="cls-2" d="M162.6,109.15a1.41,1.41,0,0,1-1-2.39l1.7-1.73a1.4,1.4,0,1,1,2,2l-1.7,1.73A1.38,1.38,0,0,1,162.6,109.15Z" transform="translate(-64.32 -57.06)"/><path class="cls-3" d="M162.6,109.15a1.41,1.41,0,0,1-1-2.39l1.7-1.73a1.4,1.4,0,1,1,2,2l-1.7,1.73A1.38,1.38,0,0,1,162.6,109.15Z" transform="translate(-64.32 -57.06)"/><path class="cls-4" d="M162.6,109.15a1.41,1.41,0,0,1-1-2.39l1.7-1.73a1.4,1.4,0,1,1,2,2l-1.7,1.73A1.38,1.38,0,0,1,162.6,109.15Z" transform="translate(-64.32 -57.06)"/><path class="cls-5" d="M162.6,109.15a1.41,1.41,0,0,1-1-2.39l1.7-1.73a1.4,1.4,0,1,1,2,2l-1.7,1.73A1.38,1.38,0,0,1,162.6,109.15Z" transform="translate(-64.32 -57.06)"/><path class="cls-6" d="M162.6,109.15a1.41,1.41,0,0,1-1-2.39l1.7-1.73a1.4,1.4,0,1,1,2,2l-1.7,1.73A1.38,1.38,0,0,1,162.6,109.15Z" transform="translate(-64.32 -57.06)"/><path class="cls-7" d="M162.6,109.15a1.41,1.41,0,0,1-1-2.39l1.7-1.73a1.4,1.4,0,1,1,2,2l-1.7,1.73A1.38,1.38,0,0,1,162.6,109.15Z" transform="translate(-64.32 -57.06)"/><path class="cls-8" d="M162.6,109.15a1.41,1.41,0,0,1-1-2.39l1.7-1.73a1.4,1.4,0,1,1,2,2l-1.7,1.73A1.38,1.38,0,0,1,162.6,109.15Z" transform="translate(-64.32 -57.06)"/><path class="cls-1" d="M205.58,129.39h-.06l-2.43-.1a1.41,1.41,0,0,1-1.34-1.46,1.43,1.43,0,0,1,1.46-1.35l2.42.1a1.41,1.41,0,0,1,0,2.81Z" transform="translate(-64.32 -57.06)"/><path class="cls-2" d="M205.58,129.39h-.06l-2.43-.1a1.41,1.41,0,0,1-1.34-1.46,1.43,1.43,0,0,1,1.46-1.35l2.42.1a1.41,1.41,0,0,1,0,2.81Z" transform="translate(-64.32 -57.06)"/><path class="cls-3" d="M205.58,129.39h-.06l-2.43-.1a1.41,1.41,0,0,1-1.34-1.46,1.43,1.43,0,0,1,1.46-1.35l2.42.1a1.41,1.41,0,0,1,0,2.81Z" transform="translate(-64.32 -57.06)"/><path class="cls-4" d="M205.58,129.39h-.06l-2.43-.1a1.41,1.41,0,0,1-1.34-1.46,1.43,1.43,0,0,1,1.46-1.35l2.42.1a1.41,1.41,0,0,1,0,2.81Z" transform="translate(-64.32 -57.06)"/><path class="cls-5" d="M205.58,129.39h-.06l-2.43-.1a1.41,1.41,0,0,1-1.34-1.46,1.43,1.43,0,0,1,1.46-1.35l2.42.1a1.41,1.41,0,0,1,0,2.81Z" transform="translate(-64.32 -57.06)"/><path class="cls-6" d="M205.58,129.39h-.06l-2.43-.1a1.41,1.41,0,0,1-1.34-1.46,1.43,1.43,0,0,1,1.46-1.35l2.42.1a1.41,1.41,0,0,1,0,2.81Z" transform="translate(-64.32 -57.06)"/><path class="cls-7" d="M205.58,129.39h-.06l-2.43-.1a1.41,1.41,0,0,1-1.34-1.46,1.43,1.43,0,0,1,1.46-1.35l2.42.1a1.41,1.41,0,0,1,0,2.81Z" transform="translate(-64.32 -57.06)"/><path class="cls-8" d="M205.58,129.39h-.06l-2.43-.1a1.41,1.41,0,0,1-1.34-1.46,1.43,1.43,0,0,1,1.46-1.35l2.42.1a1.41,1.41,0,0,1,0,2.81Z" transform="translate(-64.32 -57.06)"/><path class="cls-1" d="M199,129.12h-.06l-4.16-.17a1.4,1.4,0,1,1,.11-2.8l4.16.17a1.4,1.4,0,0,1-.05,2.8Zm-8.32-.33h-.06l-4.16-.17a1.4,1.4,0,0,1,.11-2.8l4.16.16a1.41,1.41,0,0,1,0,2.81Zm-8.32-.33h-.06l-4.16-.16a1.4,1.4,0,0,1-1.34-1.46,1.43,1.43,0,0,1,1.46-1.35l4.16.17a1.41,1.41,0,0,1-.06,2.81Z" transform="translate(-64.32 -57.06)"/><path class="cls-2" d="M199,129.12h-.06l-4.16-.17a1.4,1.4,0,1,1,.11-2.8l4.16.17a1.4,1.4,0,0,1-.05,2.8Zm-8.32-.33h-.06l-4.16-.17a1.4,1.4,0,0,1,.11-2.8l4.16.16a1.41,1.41,0,0,1,0,2.81Zm-8.32-.33h-.06l-4.16-.16a1.4,1.4,0,0,1-1.34-1.46,1.43,1.43,0,0,1,1.46-1.35l4.16.17a1.41,1.41,0,0,1-.06,2.81Z" transform="translate(-64.32 -57.06)"/><path class="cls-3" d="M199,129.12h-.06l-4.16-.17a1.4,1.4,0,1,1,.11-2.8l4.16.17a1.4,1.4,0,0,1-.05,2.8Zm-8.32-.33h-.06l-4.16-.17a1.4,1.4,0,0,1,.11-2.8l4.16.16a1.41,1.41,0,0,1,0,2.81Zm-8.32-.33h-.06l-4.16-.16a1.4,1.4,0,0,1-1.34-1.46,1.43,1.43,0,0,1,1.46-1.35l4.16.17a1.41,1.41,0,0,1-.06,2.81Z" transform="translate(-64.32 -57.06)"/><path class="cls-4" d="M199,129.12h-.06l-4.16-.17a1.4,1.4,0,1,1,.11-2.8l4.16.17a1.4,1.4,0,0,1-.05,2.8Zm-8.32-.33h-.06l-4.16-.17a1.4,1.4,0,0,1,.11-2.8l4.16.16a1.41,1.41,0,0,1,0,2.81Zm-8.32-.33h-.06l-4.16-.16a1.4,1.4,0,0,1-1.34-1.46,1.43,1.43,0,0,1,1.46-1.35l4.16.17a1.41,1.41,0,0,1-.06,2.81Z" transform="translate(-64.32 -57.06)"/><path class="cls-5" d="M199,129.12h-.06l-4.16-.17a1.4,1.4,0,1,1,.11-2.8l4.16.17a1.4,1.4,0,0,1-.05,2.8Zm-8.32-.33h-.06l-4.16-.17a1.4,1.4,0,0,1,.11-2.8l4.16.16a1.41,1.41,0,0,1,0,2.81Zm-8.32-.33h-.06l-4.16-.16a1.4,1.4,0,0,1-1.34-1.46,1.43,1.43,0,0,1,1.46-1.35l4.16.17a1.41,1.41,0,0,1-.06,2.81Z" transform="translate(-64.32 -57.06)"/><path class="cls-6" d="M199,129.12h-.06l-4.16-.17a1.4,1.4,0,1,1,.11-2.8l4.16.17a1.4,1.4,0,0,1-.05,2.8Zm-8.32-.33h-.06l-4.16-.17a1.4,1.4,0,0,1,.11-2.8l4.16.16a1.41,1.41,0,0,1,0,2.81Zm-8.32-.33h-.06l-4.16-.16a1.4,1.4,0,0,1-1.34-1.46,1.43,1.43,0,0,1,1.46-1.35l4.16.17a1.41,1.41,0,0,1-.06,2.81Z" transform="translate(-64.32 -57.06)"/><path class="cls-7" d="M199,129.12h-.06l-4.16-.17a1.4,1.4,0,1,1,.11-2.8l4.16.17a1.4,1.4,0,0,1-.05,2.8Zm-8.32-.33h-.06l-4.16-.17a1.4,1.4,0,0,1,.11-2.8l4.16.16a1.41,1.41,0,0,1,0,2.81Zm-8.32-.33h-.06l-4.16-.16a1.4,1.4,0,0,1-1.34-1.46,1.43,1.43,0,0,1,1.46-1.35l4.16.17a1.41,1.41,0,0,1-.06,2.81Z" transform="translate(-64.32 -57.06)"/><path class="cls-8" d="M199,129.12h-.06l-4.16-.17a1.4,1.4,0,1,1,.11-2.8l4.16.17a1.4,1.4,0,0,1-.05,2.8Zm-8.32-.33h-.06l-4.16-.17a1.4,1.4,0,0,1,.11-2.8l4.16.16a1.41,1.41,0,0,1,0,2.81Zm-8.32-.33h-.06l-4.16-.16a1.4,1.4,0,0,1-1.34-1.46,1.43,1.43,0,0,1,1.46-1.35l4.16.17a1.41,1.41,0,0,1-.06,2.81Z" transform="translate(-64.32 -57.06)"/><path class="cls-1" d="M174.05,128.12H174l-2.42-.09a1.41,1.41,0,1,1,.11-2.81l2.42.1a1.4,1.4,0,0,1,0,2.8Z" transform="translate(-64.32 -57.06)"/><path class="cls-2" d="M174.05,128.12H174l-2.42-.09a1.41,1.41,0,1,1,.11-2.81l2.42.1a1.4,1.4,0,0,1,0,2.8Z" transform="translate(-64.32 -57.06)"/><path class="cls-3" d="M174.05,128.12H174l-2.42-.09a1.41,1.41,0,1,1,.11-2.81l2.42.1a1.4,1.4,0,0,1,0,2.8Z" transform="translate(-64.32 -57.06)"/><path class="cls-4" d="M174.05,128.12H174l-2.42-.09a1.41,1.41,0,1,1,.11-2.81l2.42.1a1.4,1.4,0,0,1,0,2.8Z" transform="translate(-64.32 -57.06)"/><path class="cls-5" d="M174.05,128.12H174l-2.42-.09a1.41,1.41,0,1,1,.11-2.81l2.42.1a1.4,1.4,0,0,1,0,2.8Z" transform="translate(-64.32 -57.06)"/><path class="cls-6" d="M174.05,128.12H174l-2.42-.09a1.41,1.41,0,1,1,.11-2.81l2.42.1a1.4,1.4,0,0,1,0,2.8Z" transform="translate(-64.32 -57.06)"/><path class="cls-7" d="M174.05,128.12H174l-2.42-.09a1.41,1.41,0,1,1,.11-2.81l2.42.1a1.4,1.4,0,0,1,0,2.8Z" transform="translate(-64.32 -57.06)"/><path class="cls-8" d="M174.05,128.12H174l-2.42-.09a1.41,1.41,0,1,1,.11-2.81l2.42.1a1.4,1.4,0,0,1,0,2.8Z" transform="translate(-64.32 -57.06)"/><path class="cls-1" d="M78.52,130a1.41,1.41,0,0,1,0-2.81l2.42,0h0A1.41,1.41,0,0,1,81,130l-2.42.05Z" transform="translate(-64.32 -57.06)"/><path class="cls-2" d="M78.52,130a1.41,1.41,0,0,1,0-2.81l2.42,0h0A1.41,1.41,0,0,1,81,130l-2.42.05Z" transform="translate(-64.32 -57.06)"/><path class="cls-3" d="M78.52,130a1.41,1.41,0,0,1,0-2.81l2.42,0h0A1.41,1.41,0,0,1,81,130l-2.42.05Z" transform="translate(-64.32 -57.06)"/><path class="cls-4" d="M78.52,130a1.41,1.41,0,0,1,0-2.81l2.42,0h0A1.41,1.41,0,0,1,81,130l-2.42.05Z" transform="translate(-64.32 -57.06)"/><path class="cls-5" d="M78.52,130a1.41,1.41,0,0,1,0-2.81l2.42,0h0A1.41,1.41,0,0,1,81,130l-2.42.05Z" transform="translate(-64.32 -57.06)"/><path class="cls-6" d="M78.52,130a1.41,1.41,0,0,1,0-2.81l2.42,0h0A1.41,1.41,0,0,1,81,130l-2.42.05Z" transform="translate(-64.32 -57.06)"/><path class="cls-7" d="M78.52,130a1.41,1.41,0,0,1,0-2.81l2.42,0h0A1.41,1.41,0,0,1,81,130l-2.42.05Z" transform="translate(-64.32 -57.06)"/><path class="cls-8" d="M78.52,130a1.41,1.41,0,0,1,0-2.81l2.42,0h0A1.41,1.41,0,0,1,81,130l-2.42.05Z" transform="translate(-64.32 -57.06)"/><path class="cls-1" d="M86.61,129.87a1.41,1.41,0,0,1,0-2.81l5.67-.1a1.4,1.4,0,1,1,.06,2.8l-5.67.11ZM98,129.65a1.4,1.4,0,0,1,0-2.8l5.67-.12a1.43,1.43,0,0,1,1.43,1.38,1.39,1.39,0,0,1-1.38,1.43l-5.67.11Z" transform="translate(-64.32 -57.06)"/><path class="cls-2" d="M86.61,129.87a1.41,1.41,0,0,1,0-2.81l5.67-.1a1.4,1.4,0,1,1,.06,2.8l-5.67.11ZM98,129.65a1.4,1.4,0,0,1,0-2.8l5.67-.12a1.43,1.43,0,0,1,1.43,1.38,1.39,1.39,0,0,1-1.38,1.43l-5.67.11Z" transform="translate(-64.32 -57.06)"/><path class="cls-3" d="M86.61,129.87a1.41,1.41,0,0,1,0-2.81l5.67-.1a1.4,1.4,0,1,1,.06,2.8l-5.67.11ZM98,129.65a1.4,1.4,0,0,1,0-2.8l5.67-.12a1.43,1.43,0,0,1,1.43,1.38,1.39,1.39,0,0,1-1.38,1.43l-5.67.11Z" transform="translate(-64.32 -57.06)"/><path class="cls-4" d="M86.61,129.87a1.41,1.41,0,0,1,0-2.81l5.67-.1a1.4,1.4,0,1,1,.06,2.8l-5.67.11ZM98,129.65a1.4,1.4,0,0,1,0-2.8l5.67-.12a1.43,1.43,0,0,1,1.43,1.38,1.39,1.39,0,0,1-1.38,1.43l-5.67.11Z" transform="translate(-64.32 -57.06)"/><path class="cls-5" d="M86.61,129.87a1.41,1.41,0,0,1,0-2.81l5.67-.1a1.4,1.4,0,1,1,.06,2.8l-5.67.11ZM98,129.65a1.4,1.4,0,0,1,0-2.8l5.67-.12a1.43,1.43,0,0,1,1.43,1.38,1.39,1.39,0,0,1-1.38,1.43l-5.67.11Z" transform="translate(-64.32 -57.06)"/><path class="cls-6" d="M86.61,129.87a1.41,1.41,0,0,1,0-2.81l5.67-.1a1.4,1.4,0,1,1,.06,2.8l-5.67.11ZM98,129.65a1.4,1.4,0,0,1,0-2.8l5.67-.12a1.43,1.43,0,0,1,1.43,1.38,1.39,1.39,0,0,1-1.38,1.43l-5.67.11Z" transform="translate(-64.32 -57.06)"/><path class="cls-7" d="M86.61,129.87a1.41,1.41,0,0,1,0-2.81l5.67-.1a1.4,1.4,0,1,1,.06,2.8l-5.67.11ZM98,129.65a1.4,1.4,0,0,1,0-2.8l5.67-.12a1.43,1.43,0,0,1,1.43,1.38,1.39,1.39,0,0,1-1.38,1.43l-5.67.11Z" transform="translate(-64.32 -57.06)"/><path class="cls-8" d="M86.61,129.87a1.41,1.41,0,0,1,0-2.81l5.67-.1a1.4,1.4,0,1,1,.06,2.8l-5.67.11ZM98,129.65a1.4,1.4,0,0,1,0-2.8l5.67-.12a1.43,1.43,0,0,1,1.43,1.38,1.39,1.39,0,0,1-1.38,1.43l-5.67.11Z" transform="translate(-64.32 -57.06)"/><path class="cls-1" d="M109.29,129.43a1.4,1.4,0,0,1,0-2.8l2.42,0h0a1.41,1.41,0,0,1,0,2.81l-2.43,0Z" transform="translate(-64.32 -57.06)"/><path class="cls-2" d="M109.29,129.43a1.4,1.4,0,0,1,0-2.8l2.42,0h0a1.41,1.41,0,0,1,0,2.81l-2.43,0Z" transform="translate(-64.32 -57.06)"/><path class="cls-3" d="M109.29,129.43a1.4,1.4,0,0,1,0-2.8l2.42,0h0a1.41,1.41,0,0,1,0,2.81l-2.43,0Z" transform="translate(-64.32 -57.06)"/><path class="cls-4" d="M109.29,129.43a1.4,1.4,0,0,1,0-2.8l2.42,0h0a1.41,1.41,0,0,1,0,2.81l-2.43,0Z" transform="translate(-64.32 -57.06)"/><path class="cls-5" d="M109.29,129.43a1.4,1.4,0,0,1,0-2.8l2.42,0h0a1.41,1.41,0,0,1,0,2.81l-2.43,0Z" transform="translate(-64.32 -57.06)"/><path class="cls-6" d="M109.29,129.43a1.4,1.4,0,0,1,0-2.8l2.42,0h0a1.41,1.41,0,0,1,0,2.81l-2.43,0Z" transform="translate(-64.32 -57.06)"/><path class="cls-7" d="M109.29,129.43a1.4,1.4,0,0,1,0-2.8l2.42,0h0a1.41,1.41,0,0,1,0,2.81l-2.43,0Z" transform="translate(-64.32 -57.06)"/><path class="cls-8" d="M109.29,129.43a1.4,1.4,0,0,1,0-2.8l2.42,0h0a1.41,1.41,0,0,1,0,2.81l-2.43,0Z" transform="translate(-64.32 -57.06)"/><path class="cls-1" d="M98.61,86.73a1.4,1.4,0,0,1-1-.41L95.91,84.6a1.38,1.38,0,0,1,0-2,1.39,1.39,0,0,1,2,0l1.71,1.71a1.41,1.41,0,0,1-1,2.4Z" transform="translate(-64.32 -57.06)"/><path class="cls-2" d="M98.61,86.73a1.4,1.4,0,0,1-1-.41L95.91,84.6a1.38,1.38,0,0,1,0-2,1.39,1.39,0,0,1,2,0l1.71,1.71a1.41,1.41,0,0,1-1,2.4Z" transform="translate(-64.32 -57.06)"/><path class="cls-3" d="M98.61,86.73a1.4,1.4,0,0,1-1-.41L95.91,84.6a1.38,1.38,0,0,1,0-2,1.39,1.39,0,0,1,2,0l1.71,1.71a1.41,1.41,0,0,1-1,2.4Z" transform="translate(-64.32 -57.06)"/><path class="cls-4" d="M98.61,86.73a1.4,1.4,0,0,1-1-.41L95.91,84.6a1.38,1.38,0,0,1,0-2,1.39,1.39,0,0,1,2,0l1.71,1.71a1.41,1.41,0,0,1-1,2.4Z" transform="translate(-64.32 -57.06)"/><path class="cls-5" d="M98.61,86.73a1.4,1.4,0,0,1-1-.41L95.91,84.6a1.38,1.38,0,0,1,0-2,1.39,1.39,0,0,1,2,0l1.71,1.71a1.41,1.41,0,0,1-1,2.4Z" transform="translate(-64.32 -57.06)"/><path class="cls-6" d="M98.61,86.73a1.4,1.4,0,0,1-1-.41L95.91,84.6a1.38,1.38,0,0,1,0-2,1.39,1.39,0,0,1,2,0l1.71,1.71a1.41,1.41,0,0,1-1,2.4Z" transform="translate(-64.32 -57.06)"/><path class="cls-7" d="M98.61,86.73a1.4,1.4,0,0,1-1-.41L95.91,84.6a1.38,1.38,0,0,1,0-2,1.39,1.39,0,0,1,2,0l1.71,1.71a1.41,1.41,0,0,1-1,2.4Z" transform="translate(-64.32 -57.06)"/><path class="cls-35" d="M98.61,86.73a1.4,1.4,0,0,1-1-.41L95.91,84.6a1.38,1.38,0,0,1,0-2,1.39,1.39,0,0,1,2,0l1.71,1.71a1.41,1.41,0,0,1-1,2.4Z" transform="translate(-64.32 -57.06)"/><path class="cls-8" d="M98.61,86.73a1.4,1.4,0,0,1-1-.41L95.91,84.6a1.38,1.38,0,0,1,0-2,1.39,1.39,0,0,1,2,0l1.71,1.71a1.41,1.41,0,0,1-1,2.4Z" transform="translate(-64.32 -57.06)"/><path class="cls-1" d="M114.23,102.34a1.42,1.42,0,0,1-1-.41l-3.9-3.9a1.4,1.4,0,1,1,2-2l3.91,3.9a1.41,1.41,0,0,1-1,2.4Zm-7.81-7.81a1.4,1.4,0,0,1-1-.41l-3.9-3.9a1.4,1.4,0,1,1,2-2l3.9,3.9a1.39,1.39,0,0,1,0,2A1.38,1.38,0,0,1,106.42,94.53Z" transform="translate(-64.32 -57.06)"/><path class="cls-2" d="M114.23,102.34a1.42,1.42,0,0,1-1-.41l-3.9-3.9a1.4,1.4,0,1,1,2-2l3.91,3.9a1.41,1.41,0,0,1-1,2.4Zm-7.81-7.81a1.4,1.4,0,0,1-1-.41l-3.9-3.9a1.4,1.4,0,1,1,2-2l3.9,3.9a1.39,1.39,0,0,1,0,2A1.38,1.38,0,0,1,106.42,94.53Z" transform="translate(-64.32 -57.06)"/><path class="cls-3" d="M114.23,102.34a1.42,1.42,0,0,1-1-.41l-3.9-3.9a1.4,1.4,0,1,1,2-2l3.91,3.9a1.41,1.41,0,0,1-1,2.4Zm-7.81-7.81a1.4,1.4,0,0,1-1-.41l-3.9-3.9a1.4,1.4,0,1,1,2-2l3.9,3.9a1.39,1.39,0,0,1,0,2A1.38,1.38,0,0,1,106.42,94.53Z" transform="translate(-64.32 -57.06)"/><path class="cls-4" d="M114.23,102.34a1.42,1.42,0,0,1-1-.41l-3.9-3.9a1.4,1.4,0,1,1,2-2l3.91,3.9a1.41,1.41,0,0,1-1,2.4Zm-7.81-7.81a1.4,1.4,0,0,1-1-.41l-3.9-3.9a1.4,1.4,0,1,1,2-2l3.9,3.9a1.39,1.39,0,0,1,0,2A1.38,1.38,0,0,1,106.42,94.53Z" transform="translate(-64.32 -57.06)"/><path class="cls-5" d="M114.23,102.34a1.42,1.42,0,0,1-1-.41l-3.9-3.9a1.4,1.4,0,1,1,2-2l3.91,3.9a1.41,1.41,0,0,1-1,2.4Zm-7.81-7.81a1.4,1.4,0,0,1-1-.41l-3.9-3.9a1.4,1.4,0,1,1,2-2l3.9,3.9a1.39,1.39,0,0,1,0,2A1.38,1.38,0,0,1,106.42,94.53Z" transform="translate(-64.32 -57.06)"/><path class="cls-6" d="M114.23,102.34a1.42,1.42,0,0,1-1-.41l-3.9-3.9a1.4,1.4,0,1,1,2-2l3.91,3.9a1.41,1.41,0,0,1-1,2.4Zm-7.81-7.81a1.4,1.4,0,0,1-1-.41l-3.9-3.9a1.4,1.4,0,1,1,2-2l3.9,3.9a1.39,1.39,0,0,1,0,2A1.38,1.38,0,0,1,106.42,94.53Z" transform="translate(-64.32 -57.06)"/><path class="cls-7" d="M114.23,102.34a1.42,1.42,0,0,1-1-.41l-3.9-3.9a1.4,1.4,0,1,1,2-2l3.91,3.9a1.41,1.41,0,0,1-1,2.4Zm-7.81-7.81a1.4,1.4,0,0,1-1-.41l-3.9-3.9a1.4,1.4,0,1,1,2-2l3.9,3.9a1.39,1.39,0,0,1,0,2A1.38,1.38,0,0,1,106.42,94.53Z" transform="translate(-64.32 -57.06)"/><path class="cls-8" d="M114.23,102.34a1.42,1.42,0,0,1-1-.41l-3.9-3.9a1.4,1.4,0,1,1,2-2l3.91,3.9a1.41,1.41,0,0,1-1,2.4Zm-7.81-7.81a1.4,1.4,0,0,1-1-.41l-3.9-3.9a1.4,1.4,0,1,1,2-2l3.9,3.9a1.39,1.39,0,0,1,0,2A1.38,1.38,0,0,1,106.42,94.53Z" transform="translate(-64.32 -57.06)"/><path class="cls-1" d="M119.85,108a1.41,1.41,0,0,1-1-.41l-1.71-1.72a1.4,1.4,0,0,1,2-2l1.72,1.71a1.41,1.41,0,0,1-1,2.4Z" transform="translate(-64.32 -57.06)"/><path class="cls-2" d="M119.85,108a1.41,1.41,0,0,1-1-.41l-1.71-1.72a1.4,1.4,0,0,1,2-2l1.72,1.71a1.41,1.41,0,0,1-1,2.4Z" transform="translate(-64.32 -57.06)"/><path class="cls-3" d="M119.85,108a1.41,1.41,0,0,1-1-.41l-1.71-1.72a1.4,1.4,0,0,1,2-2l1.72,1.71a1.41,1.41,0,0,1-1,2.4Z" transform="translate(-64.32 -57.06)"/><path class="cls-4" d="M119.85,108a1.41,1.41,0,0,1-1-.41l-1.71-1.72a1.4,1.4,0,0,1,2-2l1.72,1.71a1.41,1.41,0,0,1-1,2.4Z" transform="translate(-64.32 -57.06)"/><path class="cls-5" d="M119.85,108a1.41,1.41,0,0,1-1-.41l-1.71-1.72a1.4,1.4,0,0,1,2-2l1.72,1.71a1.41,1.41,0,0,1-1,2.4Z" transform="translate(-64.32 -57.06)"/><path class="cls-6" d="M119.85,108a1.41,1.41,0,0,1-1-.41l-1.71-1.72a1.4,1.4,0,0,1,2-2l1.72,1.71a1.41,1.41,0,0,1-1,2.4Z" transform="translate(-64.32 -57.06)"/><path class="cls-7" d="M119.85,108a1.41,1.41,0,0,1-1-.41l-1.71-1.72a1.4,1.4,0,0,1,2-2l1.72,1.71a1.41,1.41,0,0,1-1,2.4Z" transform="translate(-64.32 -57.06)"/><path class="cls-35" d="M119.85,108a1.41,1.41,0,0,1-1-.41l-1.71-1.72a1.4,1.4,0,0,1,2-2l1.72,1.71a1.41,1.41,0,0,1-1,2.4Z" transform="translate(-64.32 -57.06)"/><path class="cls-8" d="M119.85,108a1.41,1.41,0,0,1-1-.41l-1.71-1.72a1.4,1.4,0,0,1,2-2l1.72,1.71a1.41,1.41,0,0,1-1,2.4Z" transform="translate(-64.32 -57.06)"/></svg>